<svg version="1.1" xmlns="http://www.w3.org/2000/svg" viewBox="0 0 1123.0640719883145 956.0133527012167" width="2246.128143976629" height="1912.0267054024334">
  <!-- svg-source:excalidraw -->
  
  <defs>
    <style class="style-fonts">
      @font-face {
        font-family: "Virgil";
        src: url("https://excalidraw.com/Virgil.woff2");
      }
      @font-face {
        font-family: "Cascadia";
        src: url("https://excalidraw.com/Cascadia.woff2");
      }
      @font-face {
        font-family: "Assistant";
        src: url("https://excalidraw.com/Assistant-Regular.woff2");
      }
    </style>
    
  </defs>
  <rect x="0" y="0" width="1123.0640719883145" height="956.0133527012167" fill="#ffffff"></rect><g stroke-linecap="round" transform="translate(203.3804782383144 10) rotate(0 454.841796875 326.3515625)"><path d="M32 0 C212.41 -2.91, 392.85 -3.95, 877.68 0 M32 0 C229.06 3.26, 426.89 3.19, 877.68 0 M877.68 0 C900.85 -0.56, 911.51 11.18, 909.68 32 M877.68 0 C897.32 -0.86, 907.41 12.61, 909.68 32 M909.68 32 C908.47 247.97, 908.18 462.19, 909.68 620.7 M909.68 32 C911.97 219.53, 911.45 406.28, 909.68 620.7 M909.68 620.7 C910.56 642.29, 898.24 651.29, 877.68 652.7 M909.68 620.7 C908.38 641.61, 897.13 653.85, 877.68 652.7 M877.68 652.7 C620.94 653.24, 365.14 654.74, 32 652.7 M877.68 652.7 C590.1 649.73, 302.36 649.61, 32 652.7 M32 652.7 C11.49 652.24, -1.65 643.64, 0 620.7 M32 652.7 C9.61 653.59, -0.38 640.46, 0 620.7 M0 620.7 C0.36 401.79, 0.17 182.24, 0 32 M0 620.7 C-1.61 481.69, -1.42 343.11, 0 32 M0 32 C-0.29 11.93, 11.85 1.14, 32 0 M0 32 C-1.19 8.38, 12.33 2.07, 32 0" stroke="#1e1e1e" stroke-width="2" fill="none"></path></g><g transform="translate(265.75157198831437 38.9765625) rotate(0 56.23993682861328 12.5)"><text x="0" y="17.52" font-family="Virgil, Segoe UI Emoji" font-size="20px" fill="#1e1e1e" text-anchor="start" style="white-space: pre;" direction="ltr" dominant-baseline="alphabetic">k8s-cluster</text></g><g stroke-linecap="round" transform="translate(286.76719698831437 111.2578125) rotate(0 88.9765625 117.4375)"><path d="M32 0 C73.42 -0.52, 120.28 -0.11, 145.95 0 M32 0 C54.61 0.02, 79.25 -0.09, 145.95 0 M145.95 0 C166.5 -1.62, 177.77 12.34, 177.95 32 M145.95 0 C167.27 2.07, 176.63 9.6, 177.95 32 M177.95 32 C174.82 88.56, 175.05 149.25, 177.95 202.88 M177.95 32 C177.83 79.26, 178.32 125.02, 177.95 202.88 M177.95 202.88 C176.88 223.7, 166.19 236.33, 145.95 234.88 M177.95 202.88 C179.35 225.99, 166.81 234.33, 145.95 234.88 M145.95 234.88 C102.45 236.13, 56.54 234.86, 32 234.88 M145.95 234.88 C117.48 235.24, 88.99 234.88, 32 234.88 M32 234.88 C12.13 234.76, -1.47 223.11, 0 202.88 M32 234.88 C12.28 236.4, 0.03 222.77, 0 202.88 M0 202.88 C-1.53 156.09, -1.18 111.36, 0 32 M0 202.88 C0.91 157.37, 1.99 111.47, 0 32 M0 32 C0.32 9.66, 11.93 1.94, 32 0 M0 32 C-2.23 12.61, 8.94 -2.24, 32 0" stroke="#1e1e1e" stroke-width="2" fill="none"></path></g><g stroke-linecap="round" transform="translate(544.3062594883144 475.37109375) rotate(0 234.5625 73.185546875)"><path d="M32 0 C142.89 2.24, 254.71 1.71, 437.13 0 M32 0 C159.46 2.54, 286.46 2.73, 437.13 0 M437.13 0 C459.03 0.49, 469.84 11.85, 469.13 32 M437.13 0 C457.05 -0.37, 471.39 8.63, 469.13 32 M469.13 32 C467.6 54.59, 468.95 80.99, 469.13 114.37 M469.13 32 C467.92 56.1, 469.27 80.28, 469.13 114.37 M469.13 114.37 C470.39 137.06, 458.82 147.36, 437.13 146.37 M469.13 114.37 C470.67 134.79, 458.06 144.19, 437.13 146.37 M437.13 146.37 C280 145.52, 120.89 146.9, 32 146.37 M437.13 146.37 C329.63 147.95, 221.43 147.88, 32 146.37 M32 146.37 C8.9 144.61, 0.57 133.9, 0 114.37 M32 146.37 C9.9 148.24, -0.22 134.37, 0 114.37 M0 114.37 C0.42 91.97, 0.43 72.56, 0 32 M0 114.37 C0.64 89.43, 1.16 63.51, 0 32 M0 32 C0.34 9.08, 10.56 1.95, 32 0 M0 32 C-1.31 8.46, 8.39 1.98, 32 0" stroke="#1e1e1e" stroke-width="2" fill="none"></path></g><g transform="translate(692.0679782383144 492.11328125) rotate(0 81.61993408203125 12.5)"><text x="0" y="17.52" font-family="Virgil, Segoe UI Emoji" font-size="20px" fill="#1e1e1e" text-anchor="start" style="white-space: pre;" direction="ltr" dominant-baseline="alphabetic">OPA Gatekeeper</text></g><g transform="translate(319.27891573831437 131.5234375) rotate(0 53.81995391845703 12.5)"><text x="0" y="17.52" font-family="Virgil, Segoe UI Emoji" font-size="20px" fill="#1e1e1e" text-anchor="start" style="white-space: pre;" direction="ltr" dominant-baseline="alphabetic">API server</text></g><g stroke-linecap="round" transform="translate(298.17344698831437 186.48046875) rotate(0 70.044921875 56.82226562500003)"><path d="M28.41 0 C56.03 1.81, 84.89 -0.33, 111.68 0 M28.41 0 C55.99 0.13, 85.78 0.39, 111.68 0 M111.68 0 C129.59 -0.99, 138.9 10.15, 140.09 28.41 M111.68 0 C130.43 0.59, 138.08 8.66, 140.09 28.41 M140.09 28.41 C141.08 48.74, 140.51 70.66, 140.09 85.23 M140.09 28.41 C139.58 40.32, 138.98 52.53, 140.09 85.23 M140.09 85.23 C138.7 102.18, 130.4 114.43, 111.68 113.64 M140.09 85.23 C139.82 103.42, 132.92 112.85, 111.68 113.64 M111.68 113.64 C78.72 115.18, 45.95 112.89, 28.41 113.64 M111.68 113.64 C86.83 113.53, 62.81 113.94, 28.41 113.64 M28.41 113.64 C8.32 113.85, 0.87 105.92, 0 85.23 M28.41 113.64 C8.21 113.42, 1.4 105.59, 0 85.23 M0 85.23 C1.21 63.48, -0.65 43.5, 0 28.41 M0 85.23 C0.09 72.28, 0.05 59.16, 0 28.41 M0 28.41 C-1.02 10.45, 7.51 1.81, 28.41 0 M0 28.41 C-0.28 8.48, 8.19 1.61, 28.41 0" stroke="#1e1e1e" stroke-width="2" fill="none"></path></g><g transform="translate(323.79454073831437 212.96484375) rotate(0 47.169952392578125 25)"><text x="0" y="17.52" font-family="Virgil, Segoe UI Emoji" font-size="20px" fill="#1e1e1e" text-anchor="start" style="white-space: pre;" direction="ltr" dominant-baseline="alphabetic">Admission</text><text x="0" y="42.519999999999996" font-family="Virgil, Segoe UI Emoji" font-size="20px" fill="#1e1e1e" text-anchor="start" style="white-space: pre;" direction="ltr" dominant-baseline="alphabetic">Controller</text></g><g stroke-linecap="round" transform="translate(651.8375094883144 110.55078125) rotate(0 188.5078125 146.02734375)"><path d="M32 0 C100.78 -0.73, 167.31 0.75, 345.02 0 M32 0 C119.89 0.94, 209.13 1.36, 345.02 0 M345.02 0 C367.65 -0.77, 377.85 10.93, 377.02 32 M345.02 0 C364.51 2.22, 376.04 10.15, 377.02 32 M377.02 32 C376.64 120.06, 377.27 206.69, 377.02 260.05 M377.02 32 C378.55 87.45, 379.26 143.01, 377.02 260.05 M377.02 260.05 C378.44 279.92, 364.85 291.59, 345.02 292.05 M377.02 260.05 C376.85 280.06, 365.89 294.06, 345.02 292.05 M345.02 292.05 C276.2 290.91, 208.74 290.55, 32 292.05 M345.02 292.05 C241.9 290.64, 137.03 290.54, 32 292.05 M32 292.05 C11.04 291.42, -1.63 280.92, 0 260.05 M32 292.05 C9.95 293.77, -1.34 279.24, 0 260.05 M0 260.05 C0.04 194.45, -0.93 127.05, 0 32 M0 260.05 C2.34 174.84, 1.01 90.91, 0 32 M0 32 C-0.05 11.92, 10.89 1.21, 32 0 M0 32 C-1.33 8.53, 11.8 -2.11, 32 0" stroke="#1e1e1e" stroke-width="2" fill="none"></path></g><g transform="translate(689.5757907383144 133.453125) rotate(0 66.52994537353516 12.5)"><text x="0" y="17.52" font-family="Virgil, Segoe UI Emoji" font-size="20px" fill="#1e1e1e" text-anchor="start" style="white-space: pre;" direction="ltr" dominant-baseline="alphabetic">Node Example</text></g><g stroke-linecap="round" transform="translate(680.6539157383144 190.58203125) rotate(0 55.5625 48.259765625)"><path d="M24.13 0 C49.45 1.88, 71.75 0.29, 87 0 M24.13 0 C41.05 -0.25, 58.09 1.43, 87 0 M87 0 C104.36 0.3, 112.9 6.95, 111.13 24.13 M87 0 C102.13 2.06, 110.3 7.17, 111.13 24.13 M111.13 24.13 C111.61 39.3, 110.26 52.62, 111.13 72.39 M111.13 24.13 C110.05 36.07, 111.73 46.83, 111.13 72.39 M111.13 72.39 C110 86.78, 101.84 94.57, 87 96.52 M111.13 72.39 C111.52 89.7, 103.84 98.06, 87 96.52 M87 96.52 C61.93 95.88, 37.47 97.44, 24.13 96.52 M87 96.52 C66.22 95.82, 46.13 96.68, 24.13 96.52 M24.13 96.52 C7.38 96.53, 1.82 87.33, 0 72.39 M24.13 96.52 C8.1 97.69, -1.57 90.62, 0 72.39 M0 72.39 C-0.09 55.39, -1.78 40.22, 0 24.13 M0 72.39 C-0.15 59.9, 0.27 49.9, 0 24.13 M0 24.13 C0.04 6.2, 6.65 -0.75, 24.13 0 M0 24.13 C0.35 6.51, 10.02 -1.44, 24.13 0" stroke="#1e1e1e" stroke-width="2" fill="none"></path></g><g transform="translate(716.1968844883144 202.58984375) rotate(0 17.839981079101562 12.5)"><text x="0" y="17.52" font-family="Virgil, Segoe UI Emoji" font-size="20px" fill="#1e1e1e" text-anchor="start" style="white-space: pre;" direction="ltr" dominant-baseline="alphabetic">Pod</text></g><g stroke-linecap="round" transform="translate(817.3375094883144 189.462890625) rotate(0 55.5625 48.259765625)"><path d="M24.13 0 C37.65 -1.76, 50.34 1.02, 87 0 M24.13 0 C39.14 0.48, 55.47 -0.2, 87 0 M87 0 C101.51 1.82, 111.25 9.29, 111.13 24.13 M87 0 C105.04 -1.12, 113.3 9.58, 111.13 24.13 M111.13 24.13 C109.95 42.39, 110.9 60.24, 111.13 72.39 M111.13 24.13 C110.75 37.47, 111.94 49.98, 111.13 72.39 M111.13 72.39 C110.07 88.12, 101.32 94.64, 87 96.52 M111.13 72.39 C109.66 86.41, 103.91 94.85, 87 96.52 M87 96.52 C68.15 95.22, 50.34 97.31, 24.13 96.52 M87 96.52 C73.6 97.63, 59.1 97.46, 24.13 96.52 M24.13 96.52 C9.1 94.69, 0.52 87.21, 0 72.39 M24.13 96.52 C8.24 95.54, -0.5 87.22, 0 72.39 M0 72.39 C0.68 62.13, 1.85 49.89, 0 24.13 M0 72.39 C1.02 58.91, 0.73 45.02, 0 24.13 M0 24.13 C-1.44 9.1, 8.87 0.24, 24.13 0 M0 24.13 C2.13 8.77, 5.79 -1.21, 24.13 0" stroke="#1e1e1e" stroke-width="2" fill="none"></path></g><g transform="translate(840.2828219883144 200.478515625) rotate(0 33.75996398925781 12.5)"><text x="0" y="17.52" font-family="Virgil, Segoe UI Emoji" font-size="20px" fill="#1e1e1e" text-anchor="start" style="white-space: pre;" direction="ltr" dominant-baseline="alphabetic">Service</text></g><g stroke-linecap="round" transform="translate(680.7515719883144 295.865234375) rotate(0 55.5625 48.259765625)"><path d="M24.13 0 C37.84 -1.83, 51.52 -0.21, 87 0 M24.13 0 C36.34 0.26, 49.67 0.14, 87 0 M87 0 C102.95 1, 112.38 7.62, 111.13 24.13 M87 0 C103.02 -0.94, 112.35 8, 111.13 24.13 M111.13 24.13 C111.61 41.05, 112.86 54.83, 111.13 72.39 M111.13 24.13 C110.21 42.04, 109.99 61.86, 111.13 72.39 M111.13 72.39 C112.64 87.27, 103.22 97.76, 87 96.52 M111.13 72.39 C111.12 87.09, 102.97 98.74, 87 96.52 M87 96.52 C73.18 97.44, 62.01 96.01, 24.13 96.52 M87 96.52 C69.4 96.01, 51.8 95.66, 24.13 96.52 M24.13 96.52 C9.52 95.16, -0.4 86.58, 0 72.39 M24.13 96.52 C10.3 94.63, -1.47 89.17, 0 72.39 M0 72.39 C-2.34 55.88, -0.33 40.05, 0 24.13 M0 72.39 C-0.44 56.77, -0.39 41.31, 0 24.13 M0 24.13 C1.94 9.78, 9.07 -0.26, 24.13 0 M0 24.13 C0.34 7.99, 6.77 -1.52, 24.13 0" stroke="#1e1e1e" stroke-width="2" fill="none"></path></g><g transform="translate(686.4937594883144 307.732421875) rotate(0 49.11994934082031 12.5)"><text x="0" y="17.52" font-family="Virgil, Segoe UI Emoji" font-size="20px" fill="#1e1e1e" text-anchor="start" style="white-space: pre;" direction="ltr" dominant-baseline="alphabetic">Resources</text></g><g stroke-linecap="round" transform="translate(587.1578219883144 535.26953125) rotate(0 93.626953125 34.380859375)"><path d="M17.19 0 C71.07 -1.67, 126.3 0.77, 170.06 0 M17.19 0 C70.14 -1.21, 122.42 -2.22, 170.06 0 M170.06 0 C179.83 1.93, 185.7 6.78, 187.25 17.19 M170.06 0 C182.92 -1.39, 188.06 4.42, 187.25 17.19 M187.25 17.19 C185.91 26.35, 186.77 31.64, 187.25 51.57 M187.25 17.19 C187.55 23.45, 187.82 31.99, 187.25 51.57 M187.25 51.57 C186.02 64.26, 183.4 70.27, 170.06 68.76 M187.25 51.57 C185.74 64.98, 179.62 68.01, 170.06 68.76 M170.06 68.76 C131.93 67.61, 93.99 66.88, 17.19 68.76 M170.06 68.76 C123.67 69.69, 77.85 69.39, 17.19 68.76 M17.19 68.76 C6.68 70.74, 0.19 62.66, 0 51.57 M17.19 68.76 C5.76 67.54, 1.27 64.1, 0 51.57 M0 51.57 C-0.22 45.19, 1.05 37.56, 0 17.19 M0 51.57 C0.04 43.39, -0.8 33.91, 0 17.19 M0 17.19 C-0.27 5.23, 5.07 1.08, 17.19 0 M0 17.19 C-1.77 6.17, 7.53 -0.54, 17.19 0" stroke="#1e1e1e" stroke-width="2" fill="none"></path></g><g transform="translate(605.9312594883144 552.84375) rotate(0 56.63994598388672 12.5)"><text x="0" y="17.52" font-family="Virgil, Segoe UI Emoji" font-size="20px" fill="#1e1e1e" text-anchor="start" style="white-space: pre;" direction="ltr" dominant-baseline="alphabetic">Constraints</text></g><g stroke-linecap="round" transform="translate(799.1246188633144 536.537109375) rotate(0 93.626953125 34.380859375)"><path d="M17.19 0 C74.15 -0.9, 135.8 1.35, 170.06 0 M17.19 0 C73.76 -1.04, 130.26 -1.92, 170.06 0 M170.06 0 C179.62 -1.26, 189.02 7.31, 187.25 17.19 M170.06 0 C180.38 -0.1, 187.38 4.66, 187.25 17.19 M187.25 17.19 C185.28 27.22, 188.56 39.31, 187.25 51.57 M187.25 17.19 C187.95 31, 186.69 42.28, 187.25 51.57 M187.25 51.57 C186.23 61.48, 181.74 68.31, 170.06 68.76 M187.25 51.57 C187.24 64.71, 180.13 66.74, 170.06 68.76 M170.06 68.76 C130.78 68.02, 85.77 67.95, 17.19 68.76 M170.06 68.76 C116.62 70.02, 64.94 69.14, 17.19 68.76 M17.19 68.76 C4.06 68.78, -0.92 61.14, 0 51.57 M17.19 68.76 C7.51 66.94, 0.96 64.58, 0 51.57 M0 51.57 C-1.82 43.88, -1.43 34.51, 0 17.19 M0 51.57 C-0.27 42.25, 0.65 31.46, 0 17.19 M0 17.19 C-1.56 7.52, 7.61 1.8, 17.19 0 M0 17.19 C0.69 5.03, 6.48 -1.24, 17.19 0" stroke="#1e1e1e" stroke-width="2" fill="none"></path></g><g transform="translate(841.5416186802089 545.91796875) rotate(0 51.20995330810547 25)"><text x="51.20995330810547" y="17.52" font-family="Virgil, Segoe UI Emoji" font-size="20px" fill="#1e1e1e" text-anchor="middle" style="white-space: pre;" direction="ltr" dominant-baseline="alphabetic">Constraint</text><text x="51.20995330810547" y="42.519999999999996" font-family="Virgil, Segoe UI Emoji" font-size="20px" fill="#1e1e1e" text-anchor="middle" style="white-space: pre;" direction="ltr" dominant-baseline="alphabetic">Templates</text></g><g mask="url(#mask-aysQl_X9-ho9oexk27Xo1)" stroke-linecap="round"><g transform="translate(10.806259488314396 243.703125) rotate(0 142.31987727954984 1.0024274727597628)"><path d="M-0.81 -0.55 C46.94 -0.23, 238.08 0.94, 285.45 1.08 M0.97 1.77 C48.75 2.35, 237.64 2.64, 285.11 2.54" stroke="#1e1e1e" stroke-width="2" fill="none"></path></g><g transform="translate(10.806259488314396 243.703125) rotate(0 142.31987727954984 1.0024274727597628)"><path d="M261.62 11.08 C265.79 11.36, 271.48 6.07, 285.11 2.54 M261.62 11.08 C265.98 9.7, 271.81 8.28, 285.11 2.54" stroke="#1e1e1e" stroke-width="2" fill="none"></path></g><g transform="translate(10.806259488314396 243.703125) rotate(0 142.31987727954984 1.0024274727597628)"><path d="M261.62 -6.02 C265.68 -2.07, 271.37 -3.71, 285.11 2.54 M261.62 -6.02 C265.85 -3.58, 271.67 -1.19, 285.11 2.54" stroke="#1e1e1e" stroke-width="2" fill="none"></path></g></g><mask id="mask-aysQl_X9-ho9oexk27Xo1"><rect x="0" y="0" fill="#fff" width="395.07969698831437" height="344.94140625"></rect><rect x="145.82298312112687" y="231.822265625" fill="#000" width="14.239990234375" height="25" opacity="1"></rect></mask><g transform="translate(145.82298312112687 231.822265625) rotate(0 7.303153646737343 12.883286847759763)"><text x="7.1199951171875" y="17.52" font-family="Virgil, Segoe UI Emoji" font-size="20px" fill="#1e1e1e" text-anchor="middle" style="white-space: pre;" direction="ltr" dominant-baseline="alphabetic">2</text></g><g mask="url(#mask-Kgs10na6T5t3eVBfLSPUZ)" stroke-linecap="round"><g transform="translate(538.2711032383144 554.9528936894174) rotate(0 -104.763671875 -123.06617493941735)"><path d="M0 0 C-57.75 -0.51, -115.53 -0.44, -206.45 0.99 M0 0 C-55.73 -1.01, -110.44 0.14, -206.45 0.99 M-206.45 0.99 C-205.19 -82.82, -205.58 -167.57, -209.53 -247.12 M-206.45 0.99 C-207.21 -73.27, -208.47 -148.06, -209.53 -247.12" stroke="#1e1e1e" stroke-width="2" fill="none"></path></g><g transform="translate(538.2711032383144 554.9528936894174) rotate(0 -104.763671875 -123.06617493941735)"><path d="M-200.7 -223.74 C-202.95 -229.73, -205.31 -236.52, -209.53 -247.12 M-200.7 -223.74 C-203.75 -230.59, -205.81 -235.83, -209.53 -247.12" stroke="#1e1e1e" stroke-width="2" fill="none"></path></g><g transform="translate(538.2711032383144 554.9528936894174) rotate(0 -104.763671875 -123.06617493941735)"><path d="M-217.8 -223.53 C-215.25 -229.46, -212.82 -236.3, -209.53 -247.12 M-217.8 -223.53 C-216.3 -230.38, -213.81 -235.66, -209.53 -247.12" stroke="#1e1e1e" stroke-width="2" fill="none"></path></g></g><mask id="mask-Kgs10na6T5t3eVBfLSPUZ"><rect x="0" y="0" fill="#fff" width="847.7984469883144" height="903.0700811894174"></rect><rect x="329.1118854038418" y="543.4453125" fill="#000" width="5.4199981689453125" height="25" opacity="1"></rect></mask><g transform="translate(329.1118854038417 543.4453125) rotate(0 104.39554595947266 -111.55859375)"><text x="2.7099990844726562" y="17.52" font-family="Virgil, Segoe UI Emoji" font-size="20px" fill="#1e1e1e" text-anchor="middle" style="white-space: pre;" direction="ltr" dominant-baseline="alphabetic">1</text></g><g stroke-linecap="round" transform="translate(285.5195245179534 688.04296875) rotate(0 241.1934734902424 127.232421875)"><path d="M0 0 C156.74 0.67, 315.65 0.32, 482.39 0 M0 0 C173.64 -1.8, 347.83 -1.7, 482.39 0 M482.39 0 C482.3 60.74, 483.18 120.94, 482.39 254.46 M482.39 0 C484.17 77.3, 483.81 154.01, 482.39 254.46 M482.39 254.46 C348.98 252.15, 216.71 252.77, 0 254.46 M482.39 254.46 C378.14 255.25, 273.72 255.69, 0 254.46 M0 254.46 C2.74 193.2, 1.14 132.65, 0 0 M0 254.46 C-1.79 203.46, -2.12 152.69, 0 0" stroke="#1e1e1e" stroke-width="2" fill="none"></path></g><g stroke-linecap="round"><g transform="translate(285.8730125275255 733.4775499408062) rotate(0 241.73966995383512 -1.3144548798088636)"><path d="M0 0 C177.82 -2.02, 357.16 -2.23, 483.48 -1.5 M0 0 C173.62 -2.91, 346.74 -3.4, 483.48 -1.5" stroke="#1e1e1e" stroke-width="2" fill="none"></path></g></g><mask></mask><g stroke-linecap="round"><g transform="translate(285.45079073831437 774.2861382927965) rotate(0 241.75861110920937 -0.6860469789580748)"><path d="M0 0 C191.23 -0.67, 384.41 -1.64, 483.52 -1.3 M0 0 C152.76 -0.95, 304.77 -1.41, 483.52 -1.3" stroke="#1e1e1e" stroke-width="2" fill="none"></path></g></g><mask></mask><g stroke-linecap="round"><g transform="translate(288.2934234819568 815.604597498062) rotate(0 239.44472395236488 -0.2164583361046084)"><path d="M0 0 C145.61 -1.52, 293.31 -1.43, 478.89 -1.34 M0 0 C142.25 1.84, 285.38 0.79, 478.89 -1.34" stroke="#1e1e1e" stroke-width="2" fill="none"></path></g></g><mask></mask><g stroke-linecap="round"><g transform="translate(285.917198528722 858.9707028945973) rotate(0 241.1177683126822 -0.7718094366647392)"><path d="M0 0 C180.56 -1.33, 359.09 -2.56, 482.24 -0.24 M0 0 C190.8 -0.58, 381.53 -0.02, 482.24 -0.24" stroke="#1e1e1e" stroke-width="2" fill="none"></path></g></g><mask></mask><g stroke-linecap="round"><g transform="translate(285.5538914077729 895.6008978865079) rotate(0 242.0231387662414 0.9415304954502517)"><path d="M0 0 C170.78 2.18, 339.87 1.65, 484.05 1.15 M0 0 C149.7 2.32, 299.52 2.24, 484.05 1.15" stroke="#1e1e1e" stroke-width="2" fill="none"></path></g></g><mask></mask><g stroke-linecap="round"><g transform="translate(387.2258801609538 689.9494292065505) rotate(0 0.44346243284275033 128.03196174733313)"><path d="M0 0 C-2.31 67.97, -0.27 132.96, 1.23 256.06 M0 0 C2.32 96.2, 2.3 193.58, 1.23 256.06" stroke="#1e1e1e" stroke-width="2" fill="none"></path></g></g><mask></mask><g transform="translate(326.89610323831437 705.31640625) rotate(0 2.7099990844726562 12.5)"><text x="0" y="17.52" font-family="Virgil, Segoe UI Emoji" font-size="20px" fill="#1e1e1e" text-anchor="start" style="white-space: pre;" direction="ltr" dominant-baseline="alphabetic">1</text></g><g transform="translate(323.16954073831437 746.19140625) rotate(0 7.1199951171875 12.5)"><text x="0" y="17.52" font-family="Virgil, Segoe UI Emoji" font-size="20px" fill="#1e1e1e" text-anchor="start" style="white-space: pre;" direction="ltr" dominant-baseline="alphabetic">2</text></g><g transform="translate(327.77500948831437 785.09375) rotate(0 6.80999755859375 12.5)"><text x="0" y="17.52" font-family="Virgil, Segoe UI Emoji" font-size="20px" fill="#1e1e1e" text-anchor="start" style="white-space: pre;" direction="ltr" dominant-baseline="alphabetic">3</text></g><g transform="translate(327.24375948831437 829.38671875) rotate(0 6.399993896484375 12.5)"><text x="0" y="17.52" font-family="Virgil, Segoe UI Emoji" font-size="20px" fill="#1e1e1e" text-anchor="start" style="white-space: pre;" direction="ltr" dominant-baseline="alphabetic">4</text></g><g transform="translate(329.69297823831437 868.359375) rotate(0 6.17999267578125 12.5)"><text x="0" y="17.52" font-family="Virgil, Segoe UI Emoji" font-size="20px" fill="#1e1e1e" text-anchor="start" style="white-space: pre;" direction="ltr" dominant-baseline="alphabetic">5</text></g><g transform="translate(327.83750948831437 909.3125) rotate(0 6.399993896484375 12.5)"><text x="0" y="17.52" font-family="Virgil, Segoe UI Emoji" font-size="20px" fill="#1e1e1e" text-anchor="start" style="white-space: pre;" direction="ltr" dominant-baseline="alphabetic">6</text></g><g transform="translate(419.62266573831437 699.31640625) rotate(0 152.4798583984375 12.5)"><text x="0" y="17.52" font-family="Virgil, Segoe UI Emoji" font-size="20px" fill="#1e1e1e" text-anchor="start" style="white-space: pre;" direction="ltr" dominant-baseline="alphabetic">Admission Webhook Registration</text></g><g transform="translate(419.89610323831437 747.31640625) rotate(0 108.94990539550781 12.5)"><text x="0" y="17.52" font-family="Virgil, Segoe UI Emoji" font-size="20px" fill="#1e1e1e" text-anchor="start" style="white-space: pre;" direction="ltr" dominant-baseline="alphabetic">Request Interception </text></g><g transform="translate(422.16172823831437 785.2578125) rotate(0 83.34992980957031 12.5)"><text x="0" y="17.52" font-family="Virgil, Segoe UI Emoji" font-size="20px" fill="#1e1e1e" text-anchor="start" style="white-space: pre;" direction="ltr" dominant-baseline="alphabetic">Policy Evaluation</text></g><g transform="translate(423.19297823831437 826.98828125) rotate(0 97.74990844726562 12.5)"><text x="0" y="17.52" font-family="Virgil, Segoe UI Emoji" font-size="20px" fill="#1e1e1e" text-anchor="start" style="white-space: pre;" direction="ltr" dominant-baseline="alphabetic">Admission Response </text></g><g transform="translate(424.90391573831437 868.22265625) rotate(0 154.01986694335938 12.5)"><text x="0" y="17.52" font-family="Virgil, Segoe UI Emoji" font-size="20px" fill="#1e1e1e" text-anchor="start" style="white-space: pre;" direction="ltr" dominant-baseline="alphabetic">Enforcement by the API Server</text></g><g transform="translate(428.89610323831437 908.31640625) rotate(0 141.10987854003906 12.5)"><text x="0" y="17.52" font-family="Virgil, Segoe UI Emoji" font-size="20px" fill="#1e1e1e" text-anchor="start" style="white-space: pre;" direction="ltr" dominant-baseline="alphabetic">Mutating Admission Webhook </text></g><g mask="url(#mask-EgCSwSWzbpHLhL_duca-T)" stroke-linecap="round"><g transform="translate(364.44688448831437 313.2578125) rotate(0 108.05078125 139.4921875)"><path d="M0 0 C2.29 69.6, 3.36 139.07, 2.55 278.98 M0 0 C0.31 56.14, 1.41 112.4, 2.55 278.98 M2.55 278.98 C75.29 278.55, 147.92 276.87, 216.1 276.99 M2.55 278.98 C46.51 278.18, 92.59 278.26, 216.1 276.99" stroke="#1e1e1e" stroke-width="2" fill="none"></path></g><g transform="translate(364.44688448831437 313.2578125) rotate(0 108.05078125 139.4921875)"><path d="M192.69 285.75 C198.47 284.39, 204.82 283, 216.1 276.99 M192.69 285.75 C196.47 284.43, 201.92 283.14, 216.1 276.99" stroke="#1e1e1e" stroke-width="2" fill="none"></path></g><g transform="translate(364.44688448831437 313.2578125) rotate(0 108.05078125 139.4921875)"><path d="M192.53 268.65 C198.48 271.51, 204.87 274.34, 216.1 276.99 M192.53 268.65 C196.38 270.75, 201.87 272.89, 216.1 276.99" stroke="#1e1e1e" stroke-width="2" fill="none"></path></g></g><mask id="mask-EgCSwSWzbpHLhL_duca-T"><rect x="0" y="0" fill="#fff" width="680.5484469883144" height="692.2421875"></rect><rect x="360.1876681797206" y="579.7421875" fill="#000" width="13.6199951171875" height="25" opacity="1"></rect></mask><g transform="translate(360.1876681797206 579.7421875) rotate(0 112.30999755859375 -126.9921875)"><text x="6.80999755859375" y="17.52" font-family="Virgil, Segoe UI Emoji" font-size="20px" fill="#1e1e1e" text-anchor="middle" style="white-space: pre;" direction="ltr" dominant-baseline="alphabetic">3</text></g><g mask="url(#mask-QsdpHGddRYkj_RjU8_JVf)" stroke-linecap="round"><g transform="translate(531.6343844883144 528.359375) rotate(0 -68.57260282720557 -109.18615527615998)"><path d="M0 0 C-36.14 0.7, -68.26 2.9, -134.95 2.23 M0 0 C-49.2 0.54, -97.71 0.24, -134.95 2.23 M-134.95 2.23 C-137.52 -58.8, -136.07 -118.11, -136.61 -220.73 M-134.95 2.23 C-136.31 -60.47, -138.03 -123.57, -136.61 -220.73" stroke="#1e1e1e" stroke-width="2" fill="none"></path></g><g transform="translate(531.6343844883144 528.359375) rotate(0 -68.57260282720557 -109.18615527615998)"><path d="M-128.22 -197.18 C-132.3 -203.61, -132.12 -207.99, -136.61 -220.73 M-128.22 -197.18 C-131.56 -205.27, -134.16 -214.91, -136.61 -220.73" stroke="#1e1e1e" stroke-width="2" fill="none"></path></g><g transform="translate(531.6343844883144 528.359375) rotate(0 -68.57260282720557 -109.18615527615998)"><path d="M-145.32 -197.29 C-145.04 -203.77, -140.49 -208.12, -136.61 -220.73 M-145.32 -197.29 C-142.46 -205.24, -138.86 -214.85, -136.61 -220.73" stroke="#1e1e1e" stroke-width="2" fill="none"></path></g></g><mask id="mask-QsdpHGddRYkj_RjU8_JVf"><rect x="0" y="0" fill="#fff" width="768.2476657383144" height="851.31640625"></rect><rect x="381.3112720005215" y="518.08984375" fill="#000" width="30.739974975585938" height="25" opacity="1"></rect></mask><g transform="translate(381.3112720005214 518.08984375) rotate(0 81.7505096605874 -98.91662402615998)"><text x="15.369987487792969" y="17.52" font-family="Virgil, Segoe UI Emoji" font-size="20px" fill="#1e1e1e" text-anchor="middle" style="white-space: pre;" direction="ltr" dominant-baseline="alphabetic">4,6</text></g><g mask="url(#mask-UGoaOYbFoB7QtJeXcKQYx)" stroke-linecap="round"><g transform="translate(448.07969698831437 234.33984375) rotate(0 97.66015625 0.6367623769287434)"><path d="M0 0 C68.47 1.89, 135.41 1.61, 195.32 -0.04 M0 0 C46.56 0.7, 93.61 1.65, 195.32 -0.04" stroke="#1e1e1e" stroke-width="2" fill="none"></path></g><g transform="translate(448.07969698831437 234.33984375) rotate(0 97.66015625 0.6367623769287434)"><path d="M171.93 8.78 C180.15 7.55, 186.87 4.19, 195.32 -0.04 M171.93 8.78 C177.63 6.2, 183.87 5.06, 195.32 -0.04" stroke="#1e1e1e" stroke-width="2" fill="none"></path></g><g transform="translate(448.07969698831437 234.33984375) rotate(0 97.66015625 0.6367623769287434)"><path d="M171.73 -8.32 C180.09 -3.56, 186.89 -0.93, 195.32 -0.04 M171.73 -8.32 C177.57 -6.84, 183.85 -3.92, 195.32 -0.04" stroke="#1e1e1e" stroke-width="2" fill="none"></path></g></g><mask id="mask-UGoaOYbFoB7QtJeXcKQYx"><rect x="0" y="0" fill="#fff" width="743.4000094883144" height="334.37890625"></rect><rect x="539.5598605625332" y="221.8203125" fill="#000" width="12.3599853515625" height="25" opacity="1"></rect></mask><g transform="translate(539.5598605625332 221.8203125) rotate(0 6.17999267578125 13.156293626928743)"><text x="6.17999267578125" y="17.52" font-family="Virgil, Segoe UI Emoji" font-size="20px" fill="#1e1e1e" text-anchor="middle" style="white-space: pre;" direction="ltr" dominant-baseline="alphabetic">5</text></g></svg>